<svg width="27" height="27" viewBox="0 0 27 27" fill="none" xmlns="http://www.w3.org/2000/svg">
<path d="M11.8462 17.4037C11.9291 17.4809 11.9956 17.5741 12.0417 17.6776C12.0879 17.7811 12.1127 17.8928 12.1147 18.0061C12.1167 18.1194 12.0958 18.2319 12.0534 18.337C12.0109 18.4421 11.9478 18.5375 11.8677 18.6176C11.7875 18.6977 11.6921 18.7609 11.587 18.8033C11.482 18.8458 11.3694 18.8666 11.2562 18.8646C11.1429 18.8626 11.0311 18.8378 10.9276 18.7917C10.8241 18.7456 10.731 18.6791 10.6537 18.5962L6.15374 14.0962C5.99573 13.938 5.90698 13.7235 5.90698 13.4999C5.90698 13.2764 5.99573 13.0619 6.15374 12.9037L10.6537 8.4037C10.731 8.3208 10.8241 8.25431 10.9276 8.20819C11.0311 8.16208 11.1429 8.13728 11.2562 8.13528C11.3694 8.13328 11.482 8.15412 11.587 8.19656C11.6921 8.239 11.7875 8.30216 11.8677 8.38228C11.9478 8.4624 12.0109 8.55784 12.0534 8.6629C12.0958 8.76796 12.1167 8.88049 12.1147 8.99379C12.1127 9.10708 12.0879 9.2188 12.0417 9.3223C11.9956 9.4258 11.9291 9.51895 11.8462 9.5962L8.78624 12.6562L19.6875 12.6562C19.9113 12.6562 20.1259 12.7451 20.2841 12.9033C20.4423 13.0616 20.5312 13.2762 20.5312 13.4999C20.5312 13.7237 20.4423 13.9383 20.2841 14.0966C20.1259 14.2548 19.9113 14.3437 19.6875 14.3437L8.78624 14.3437L11.8462 17.4037Z" fill="#54382E"/>
</svg>
