<svg width="25" height="25" viewBox="0 0 25 25" fill="none" xmlns="http://www.w3.org/2000/svg">
<path d="M7.73438 9.8698L11.6146 3.54168C11.7188 3.36806 11.849 3.24202 12.0052 3.16355C12.1615 3.08508 12.3264 3.04619 12.5 3.04688C12.6736 3.04758 12.8385 3.08681 12.9948 3.16459C13.151 3.24237 13.2813 3.36806 13.3854 3.54168L17.2656 9.8698C17.3698 10.0434 17.4219 10.2257 17.4219 10.4167C17.4219 10.6076 17.3785 10.7813 17.2917 10.9375C17.2049 11.0938 17.0833 11.2198 16.9271 11.3156C16.7708 11.4115 16.5885 11.459 16.3802 11.4583H8.61979C8.41146 11.4583 8.22917 11.4108 8.07292 11.3156C7.91667 11.2205 7.79514 11.0945 7.70833 10.9375C7.62153 10.7806 7.57813 10.607 7.57813 10.4167C7.57813 10.2264 7.63021 10.0441 7.73438 9.8698ZM18.2292 22.9167C16.9271 22.9167 15.8205 22.4611 14.9094 21.55C13.9983 20.6389 13.5424 19.532 13.5417 18.2292C13.541 16.9264 13.9969 15.8198 14.9094 14.9094C15.8219 13.999 16.9285 13.5431 18.2292 13.5417C19.5299 13.5403 20.6368 13.9962 21.55 14.9094C22.4632 15.8226 22.9188 16.9292 22.9167 18.2292C22.9146 19.5292 22.459 20.6361 21.55 21.55C20.641 22.4639 19.534 22.9195 18.2292 22.9167ZM3.125 21.3542V15.1042C3.125 14.809 3.225 14.5618 3.425 14.3625C3.625 14.1632 3.87222 14.0632 4.16667 14.0625H10.4167C10.7118 14.0625 10.9594 14.1625 11.1594 14.3625C11.3594 14.5625 11.459 14.8097 11.4583 15.1042V21.3542C11.4583 21.6493 11.3583 21.8969 11.1583 22.0969C10.9583 22.2969 10.7111 22.3965 10.4167 22.3958H4.16667C3.87153 22.3958 3.62431 22.2958 3.425 22.0958C3.22569 21.8958 3.12569 21.6486 3.125 21.3542ZM18.2292 20.8333C18.9583 20.8333 19.5747 20.5816 20.0781 20.0781C20.5816 19.5747 20.8333 18.9583 20.8333 18.2292C20.8333 17.5 20.5816 16.8837 20.0781 16.3802C19.5747 15.8767 18.9583 15.625 18.2292 15.625C17.5 15.625 16.8837 15.8767 16.3802 16.3802C15.8767 16.8837 15.625 17.5 15.625 18.2292C15.625 18.9583 15.8767 19.5747 16.3802 20.0781C16.8837 20.5816 17.5 20.8333 18.2292 20.8333ZM5.20833 20.3125H9.375V16.1458H5.20833V20.3125ZM10.4688 9.37501H14.5313L12.5 6.09376L10.4688 9.37501Z" fill="#5D3E3E"/>
</svg>
