<svg width="25" height="25" viewBox="0 0 25 25" fill="none" xmlns="http://www.w3.org/2000/svg">
<path d="M14.0104 12.0312L16.1458 9.89583M10.4167 13.5417C10.4167 14.0942 10.6362 14.6241 11.0269 15.0148C11.4176 15.4055 11.9475 15.625 12.5 15.625C13.0525 15.625 13.5824 15.4055 13.9731 15.0148C14.3638 14.6241 14.5833 14.0942 14.5833 13.5417C14.5833 12.9891 14.3638 12.4592 13.9731 12.0685C13.5824 11.6778 13.0525 11.4583 12.5 11.4583C11.9475 11.4583 11.4176 11.6778 11.0269 12.0685C10.6362 12.4592 10.4167 12.9891 10.4167 13.5417Z" stroke="#FFF1E0" stroke-width="2" stroke-linecap="round" stroke-linejoin="round"/>
<path d="M6.66667 20.8333C5.1439 19.623 4.03533 17.969 3.49456 16.1005C2.9538 14.232 3.00763 12.2415 3.64859 10.405C4.28955 8.56847 5.48591 6.97678 7.07186 5.85052C8.65781 4.72426 10.5548 4.1192 12.5 4.1192C14.4452 4.1192 16.3422 4.72426 17.9281 5.85052C19.5141 6.97678 20.7104 8.56847 21.3514 10.405C21.9924 12.2415 22.0462 14.232 21.5054 16.1005C20.9647 17.969 19.8561 19.623 18.3333 20.8333H6.66667Z" stroke="#FFF1E0" stroke-width="2" stroke-linecap="round" stroke-linejoin="round"/>
</svg>
