<svg width="22" height="22" viewBox="0 0 22 22" fill="none" xmlns="http://www.w3.org/2000/svg">
<path d="M5.50008 20.1668C4.99591 20.1668 4.56447 19.9875 4.20575 19.6287C3.84703 19.27 3.66736 18.8383 3.66675 18.3335V3.66683C3.66675 3.16266 3.84641 2.73122 4.20575 2.3725C4.56508 2.01377 4.99653 1.83411 5.50008 1.8335H12.0772C12.3216 1.8335 12.5547 1.87933 12.7766 1.971C12.9984 2.06266 13.1931 2.19252 13.3605 2.36058L17.8063 6.80641C17.9744 6.97447 18.1042 7.16941 18.1959 7.39125C18.2876 7.61308 18.3334 7.84591 18.3334 8.08975V18.3335C18.3334 18.8377 18.1541 19.2694 17.7953 19.6287C17.4366 19.9881 17.0049 20.1674 16.5001 20.1668H5.50008ZM11.9167 7.3335V3.66683H5.50008V18.3335H16.5001V8.25016H12.8334C12.5737 8.25016 12.3561 8.16216 12.1807 7.98616C12.0054 7.81016 11.9174 7.59261 11.9167 7.3335Z" fill="#F4DCCE"/>
</svg>
