<svg width="25" height="25" viewBox="0 0 25 25" fill="none" xmlns="http://www.w3.org/2000/svg">
<path d="M8.125 2.0835H16.875C20.2083 2.0835 22.9167 4.79183 22.9167 8.12516V16.8752C22.9167 18.4775 22.2801 20.0142 21.1471 21.1473C20.0141 22.2803 18.4773 22.9168 16.875 22.9168H8.125C4.79166 22.9168 2.08333 20.2085 2.08333 16.8752V8.12516C2.08333 6.52281 2.71986 4.98609 3.85289 3.85306C4.98592 2.72003 6.52265 2.0835 8.125 2.0835ZM7.91666 4.16683C6.9221 4.16683 5.96827 4.56192 5.26501 5.26518C4.56175 5.96844 4.16666 6.92227 4.16666 7.91683V17.0835C4.16666 19.1564 5.84374 20.8335 7.91666 20.8335H17.0833C18.0779 20.8335 19.0317 20.4384 19.735 19.7351C20.4382 19.0319 20.8333 18.0781 20.8333 17.0835V7.91683C20.8333 5.84391 19.1562 4.16683 17.0833 4.16683H7.91666ZM17.9687 5.72933C18.3141 5.72933 18.6453 5.86651 18.8895 6.1107C19.1336 6.35489 19.2708 6.68608 19.2708 7.03141C19.2708 7.37675 19.1336 7.70794 18.8895 7.95213C18.6453 8.19631 18.3141 8.3335 17.9687 8.3335C17.6234 8.3335 17.2922 8.19631 17.048 7.95213C16.8038 7.70794 16.6667 7.37675 16.6667 7.03141C16.6667 6.68608 16.8038 6.35489 17.048 6.1107C17.2922 5.86651 17.6234 5.72933 17.9687 5.72933ZM12.5 7.29183C13.8813 7.29183 15.2061 7.84056 16.1828 8.81732C17.1596 9.79407 17.7083 11.1188 17.7083 12.5002C17.7083 13.8815 17.1596 15.2063 16.1828 16.183C15.2061 17.1598 13.8813 17.7085 12.5 17.7085C11.1187 17.7085 9.7939 17.1598 8.81715 16.183C7.8404 15.2063 7.29166 13.8815 7.29166 12.5002C7.29166 11.1188 7.8404 9.79407 8.81715 8.81732C9.7939 7.84056 11.1187 7.29183 12.5 7.29183ZM12.5 9.37516C11.6712 9.37516 10.8763 9.7044 10.2903 10.2905C9.70424 10.8765 9.375 11.6714 9.375 12.5002C9.375 13.329 9.70424 14.1238 10.2903 14.7099C10.8763 15.2959 11.6712 15.6252 12.5 15.6252C13.3288 15.6252 14.1237 15.2959 14.7097 14.7099C15.2958 14.1238 15.625 13.329 15.625 12.5002C15.625 11.6714 15.2958 10.8765 14.7097 10.2905C14.1237 9.7044 13.3288 9.37516 12.5 9.37516Z" fill="#D6D6D6"/>
</svg>
