<svg width="25" height="25" viewBox="0 0 25 25" fill="none" xmlns="http://www.w3.org/2000/svg">
<path d="M4.16667 18.75C4.16667 17.6449 4.60566 16.5851 5.38706 15.8037C6.16846 15.0223 7.22827 14.5833 8.33334 14.5833H16.6667C17.7717 14.5833 18.8315 15.0223 19.613 15.8037C20.3944 16.5851 20.8333 17.6449 20.8333 18.75C20.8333 19.3025 20.6138 19.8324 20.2231 20.2231C19.8324 20.6138 19.3025 20.8333 18.75 20.8333H6.25001C5.69747 20.8333 5.16757 20.6138 4.77687 20.2231C4.38617 19.8324 4.16667 19.3025 4.16667 18.75Z" stroke="black" stroke-width="1.5" stroke-linejoin="round"/>
<path d="M12.5 10.4167C14.2259 10.4167 15.625 9.01756 15.625 7.29167C15.625 5.56578 14.2259 4.16667 12.5 4.16667C10.7741 4.16667 9.375 5.56578 9.375 7.29167C9.375 9.01756 10.7741 10.4167 12.5 10.4167Z" stroke="black" stroke-width="1.5"/>
</svg>
