<svg width="20" height="20" viewBox="0 0 20 20" fill="none" xmlns="http://www.w3.org/2000/svg">
<path fill-rule="evenodd" clip-rule="evenodd" d="M5 6.875H15C15.8288 6.875 16.6237 7.20424 17.2097 7.79029C17.7958 8.37634 18.125 9.1712 18.125 10C18.125 10.8288 17.7958 11.6237 17.2097 12.2097C16.6237 12.7958 15.8288 13.125 15 13.125H5C4.1712 13.125 3.37634 12.7958 2.79029 12.2097C2.20424 11.6237 1.875 10.8288 1.875 10C1.875 9.1712 2.20424 8.37634 2.79029 7.79029C3.37634 7.20424 4.1712 6.875 5 6.875ZM0 10C0 8.67392 0.526784 7.40215 1.46447 6.46447C2.40215 5.52678 3.67392 5 5 5H15C16.3261 5 17.5979 5.52678 18.5355 6.46447C19.4732 7.40215 20 8.67392 20 10C20 11.3261 19.4732 12.5979 18.5355 13.5355C17.5979 14.4732 16.3261 15 15 15H5C3.67392 15 2.40215 14.4732 1.46447 13.5355C0.526784 12.5979 0 11.3261 0 10ZM5 8.75C4.66848 8.75 4.35054 8.8817 4.11612 9.11612C3.8817 9.35054 3.75 9.66848 3.75 10C3.75 10.3315 3.8817 10.6495 4.11612 10.8839C4.35054 11.1183 4.66848 11.25 5 11.25H11.25C11.5815 11.25 11.8995 11.1183 12.1339 10.8839C12.3683 10.6495 12.5 10.3315 12.5 10C12.5 9.66848 12.3683 9.35054 12.1339 9.11612C11.8995 8.8817 11.5815 8.75 11.25 8.75H5Z" fill="#F4DCCE"/>
</svg>
