<svg width="30" height="30" viewBox="0 0 30 30" fill="none" xmlns="http://www.w3.org/2000/svg">
<path fill-rule="evenodd" clip-rule="evenodd" d="M7.5 10.3125H22.5C23.7432 10.3125 24.9355 10.8064 25.8146 11.6854C26.6936 12.5645 27.1875 13.7568 27.1875 15C27.1875 16.2432 26.6936 17.4355 25.8146 18.3146C24.9355 19.1936 23.7432 19.6875 22.5 19.6875H7.5C6.2568 19.6875 5.06451 19.1936 4.18544 18.3146C3.30636 17.4355 2.8125 16.2432 2.8125 15C2.8125 13.7568 3.30636 12.5645 4.18544 11.6854C5.06451 10.8064 6.2568 10.3125 7.5 10.3125ZM0 15C0 13.0109 0.790176 11.1032 2.1967 9.6967C3.60322 8.29018 5.51088 7.5 7.5 7.5H22.5C24.4891 7.5 26.3968 8.29018 27.8033 9.6967C29.2098 11.1032 30 13.0109 30 15C30 16.9891 29.2098 18.8968 27.8033 20.3033C26.3968 21.7098 24.4891 22.5 22.5 22.5H7.5C5.51088 22.5 3.60322 21.7098 2.1967 20.3033C0.790176 18.8968 0 16.9891 0 15ZM7.5 13.125C7.00272 13.125 6.52581 13.3225 6.17417 13.6742C5.82254 14.0258 5.625 14.5027 5.625 15C5.625 15.4973 5.82254 15.9742 6.17417 16.3258C6.52581 16.6775 7.00272 16.875 7.5 16.875H16.875C17.3723 16.875 17.8492 16.6775 18.2008 16.3258C18.5525 15.9742 18.75 15.4973 18.75 15C18.75 14.5027 18.5525 14.0258 18.2008 13.6742C17.8492 13.3225 17.3723 13.125 16.875 13.125H7.5Z" fill="#5D3E3E"/>
</svg>
