<svg width="34" height="34" viewBox="0 0 34 34" fill="none" xmlns="http://www.w3.org/2000/svg">
<path d="M27.6144 28.2794L18.9522 19.6172C18.2605 20.2064 17.4651 20.6625 16.566 20.9852C15.6668 21.308 14.7631 21.4694 13.8547 21.4694C11.6396 21.4694 9.76476 20.7026 8.23022 19.169C6.69568 17.6354 5.92841 15.761 5.92841 13.5459C5.92841 11.3307 6.69475 9.45544 8.22745 7.91998C9.76015 6.38451 11.6341 5.61586 13.8492 5.61402C16.0643 5.61217 17.9401 6.37944 19.4764 7.91583C21.0128 9.45221 21.781 11.3275 21.781 13.5417C21.781 14.5026 21.6109 15.4327 21.2706 16.3318C20.9303 17.231 20.483 18.0001 19.9288 18.6392L28.591 27.3L27.6144 28.2794ZM13.8561 20.0847C15.6913 20.0847 17.2406 19.453 18.504 18.1896C19.7674 16.9262 20.3991 15.3764 20.3991 13.5403C20.3991 11.7042 19.7674 10.1549 18.504 8.89244C17.2406 7.62995 15.6913 6.99824 13.8561 6.99732C12.0209 6.99639 10.4712 7.6281 9.20683 8.89244C7.94249 10.1568 7.31078 11.7061 7.31171 13.5403C7.31263 15.3746 7.94433 16.9239 9.20683 18.1882C10.4693 19.4526 12.0186 20.0843 13.8547 20.0833" fill="#E9E0DB"/>
</svg>
