<svg width="16" height="16" viewBox="0 0 16 16" fill="none" xmlns="http://www.w3.org/2000/svg">
<g clip-path="url(#clip0_876_21)">
<path fill-rule="evenodd" clip-rule="evenodd" d="M1.885 0.511025C2.05997 0.336314 2.27008 0.200783 2.50139 0.113415C2.73271 0.0260465 2.97995 -0.0111645 3.22674 0.00424771C3.47352 0.0196599 3.71421 0.0873434 3.93286 0.202813C4.15151 0.318282 4.34312 0.478901 4.495 0.674025L6.29 2.98002C6.619 3.40302 6.735 3.95402 6.605 4.47402L6.058 6.66402C6.02991 6.77746 6.03154 6.89623 6.06272 7.00886C6.0939 7.12148 6.15358 7.22418 6.236 7.30702L8.693 9.76402C8.77595 9.84661 8.87881 9.90639 8.99163 9.93758C9.10445 9.96876 9.22341 9.97029 9.337 9.94203L11.526 9.39503C11.7826 9.33124 12.0504 9.32644 12.3092 9.381C12.5679 9.43556 12.811 9.54805 13.02 9.71002L15.326 11.504C16.155 12.149 16.231 13.374 15.489 14.115L14.455 15.149C13.715 15.889 12.609 16.214 11.578 15.851C8.93867 14.9236 6.54254 13.4128 4.568 11.431C2.58637 9.45677 1.07555 7.06099 0.147998 4.42202C-0.214002 3.39202 0.110998 2.28502 0.850998 1.54502L1.885 0.511025Z" fill="#3B2C2C"/>
</g>
<defs>
<clipPath id="clip0_876_21">
<rect width="16" height="16" fill="white"/>
</clipPath>
</defs>
</svg>
