<svg width="25" height="25" viewBox="0 0 25 25" fill="none" xmlns="http://www.w3.org/2000/svg">
<path d="M19.464 4.6978C18.5041 3.73333 17.3608 2.9686 16.1008 2.44819C14.8409 1.92777 13.4894 1.66206 12.1252 1.66656C6.40913 1.66656 1.75042 6.30196 1.75042 11.9894C1.75042 13.8124 2.232 15.5832 3.13233 17.1457L1.66667 22.4998L7.1629 21.0623C8.68091 21.8853 10.3874 22.3228 12.1252 22.3228C17.8413 22.3228 22.5 17.6874 22.5 11.9999C22.5 9.23946 21.4217 6.64571 19.464 4.6978ZM12.1252 20.5728C10.5758 20.5728 9.05779 20.1561 7.72823 19.3748L7.41416 19.1873L4.14783 20.0415L5.01676 16.8749L4.80738 16.5519C3.94635 15.1843 3.48925 13.6033 3.48828 11.9894C3.48828 7.2603 7.36181 3.40614 12.1147 3.40614C14.4179 3.40614 16.585 4.30197 18.2077 5.92697C19.0113 6.72265 19.6482 7.66919 20.0813 8.71168C20.5144 9.75416 20.7351 10.8718 20.7307 11.9999C20.7517 16.729 16.8781 20.5728 12.1252 20.5728ZM16.8572 14.1561C16.5955 14.0311 15.3183 13.4061 15.0879 13.3124C14.8472 13.229 14.6797 13.1874 14.5017 13.4374C14.3237 13.6978 13.8317 14.2811 13.6851 14.4478C13.5385 14.6249 13.3815 14.6457 13.1198 14.5103C12.858 14.3853 12.0205 14.104 11.0364 13.229C10.2617 12.5415 9.74875 11.6978 9.59171 11.4374C9.44515 11.177 9.57077 11.0415 9.70687 10.9061C9.82203 10.7915 9.9686 10.604 10.0942 10.4582C10.2199 10.3124 10.2722 10.1978 10.356 10.0311C10.4397 9.85404 10.3978 9.70821 10.335 9.58321C10.2722 9.45821 9.74875 8.18738 9.53937 7.66654C9.32999 7.16655 9.11014 7.22904 8.9531 7.21863H8.45059C8.27262 7.21863 8.00042 7.28113 7.75964 7.54154C7.52932 7.80196 6.8593 8.42696 6.8593 9.69779C6.8593 10.9686 7.79104 12.1978 7.91667 12.3644C8.0423 12.5415 9.74875 15.1457 12.3451 16.2603C12.9627 16.5311 13.4443 16.6874 13.8212 16.8019C14.4389 16.9999 15.0042 16.9686 15.4544 16.9061C15.9569 16.8332 16.9933 16.2811 17.2027 15.6769C17.4225 15.0728 17.4225 14.5624 17.3493 14.4478C17.276 14.3332 17.1189 14.2811 16.8572 14.1561Z" fill="#D6D6D6"/>
</svg>
